<svg width="468" height="560" viewBox="0 0 468 560" fill="none" xmlns="http://www.w3.org/2000/svg">
<path d="M111.543 519.741V528.336M111.543 528.336C117.301 532.019 128.816 539.877 128.816 541.841C137.772 541.841 148.008 542.455 147.368 552.277C117.94 554.733 114.742 551.05 107.705 549.822C105.146 551.786 103.226 552.277 102.587 552.277C95.9761 552.073 82.755 550.681 82.755 546.752C82.755 541.841 84.6742 530.791 87.2331 529.563M111.543 528.336C96.8291 540.613 89.7921 528.336 87.2331 529.563M87.2331 529.563V519.741M87.2331 519.741L81.4755 518.513L78.2768 448.529M87.2331 519.741H120.63C128.875 491.031 140.264 437.865 143.641 382.842M78.2768 448.529L61.004 519.741H45.6504M78.2768 448.529C86.637 420.29 107.445 358.164 95.1618 313.472L109.728 307.947M45.6504 519.741V533.247M45.6504 519.741L23.2597 520.969M45.6504 533.247C50.1285 537.135 60.1084 545.279 64.2027 546.752C78.9166 548.594 78.9166 548.594 79.5563 551.05C81.4755 557.802 52.0477 560.872 42.4517 552.277C39.381 555.715 36.9074 556.575 36.0544 556.575C30.2968 556.575 18.6536 555.715 18.1418 552.277C17.5021 547.98 18.1418 533.247 21.9802 533.247M45.6504 533.247C28.3775 543.069 25.8186 533.247 21.9802 533.247M21.9802 533.247L23.2597 520.969M23.2597 520.969L16.2227 519.741C18.1419 478.815 24.0274 396.348 32.216 393.893C32.216 384.401 30.5049 354.429 28.6327 324.694M25.1789 272.342H9.82532L25.1789 182.713M25.1789 272.342H64.4682M25.1789 272.342C26.108 285.795 27.405 305.194 28.6327 324.694M25.1789 182.713C11.1048 164.091 -11.6697 120.71 9.82532 96.1538C19.8245 93.1553 28.4669 90.2584 35.5456 87.7117M25.1789 182.713C44.33 207.315 84.9354 221.656 116.792 228.729M55.8859 79.5786L57.1654 66.073C52.2608 64.6405 43.4751 58.5835 47.5694 45.8144M55.8859 79.5786C52.8512 81.0347 45.8577 84.0017 35.5456 87.7117M55.8859 79.5786L65.8566 96.1538M47.5694 45.8144C47.5694 28.0115 41.943 24.328 48.9801 14.5057C38.7443 11.8558 44.5019 13.0733 44.5019 12.0501L55.8859 8.36673L67.5323 1C63.6939 5.91116 61.135 5.91116 60.3641 8.36673C78.9164 -2.06947 167.839 -1.45573 107.704 32.3086M47.5694 45.8144C51.4515 40.494 60.8791 33.782 67.5323 49.4977L71.3708 30.4669H79.6873C83.4382 27.8067 94.293 24.4508 107.704 32.3086M107.704 32.3086C112.822 50.7255 114.538 52.2743 107.704 56.8644C101.307 61.1617 105.916 65.4589 105.916 72.2118C99.5191 78.9646 83.9063 79.0874 88.5124 84.4896M88.5124 84.4896C94.884 88.2261 100.864 89.1903 106.425 91.1392M88.5124 84.4896C99.2183 110.126 121.526 166.785 125.108 188.324M88.5124 84.4896C90.4546 106.59 74.2178 101.474 65.8566 96.1538M140.971 193.763L178.715 205.427M140.971 193.763C132.641 108.06 120.965 96.2344 106.425 91.1392M140.971 193.763C136.385 192.367 130.978 190.537 125.108 188.324M178.715 205.427C174.876 211.566 167.839 227.773 170.398 243.488M178.715 205.427V215.863C184.729 212.998 198.168 209.802 199.957 209.11C202.725 208.04 206.568 206.041 208.274 203.585C210.406 202.562 214.031 202.235 211.473 209.11C211.473 211.902 218.501 211.321 223.627 214.473M170.398 243.488C173.981 241.524 174.876 237.349 174.876 235.508M170.398 243.488C166.39 240.828 155.944 235.139 146.22 233.666M136.624 277.866C142.723 276.988 147.46 276.067 150.698 275.336M136.624 277.866C135.247 271.41 133.777 266.106 132.098 252.762M136.624 277.866C137.279 280.451 137.89 283.073 138.457 285.731M146.22 233.666C148.267 260.677 153.043 271.932 155.176 274.183C154.4 274.431 152.894 274.84 150.698 275.336M146.22 233.666C138.448 232.858 128.179 231.258 116.792 228.729M129.587 229.369C129.876 234.232 131.436 247.497 132.098 252.762M116.792 228.729L115.451 258.756M114.233 176.574V187.01M114.233 176.574L50.8993 118.254L63.6939 107.204H50.8993L35.5456 87.7117M114.233 176.574L65.8566 96.1538M47.5694 132.373C54.7344 156.527 95.7098 177.24 125.108 188.324M106.425 91.1392L118.711 102.906L114.233 107.204L121.27 112.115L125.108 188.324M150.698 275.336C152.661 281.295 157.968 294.073 163.492 297.511M142.755 313.472H170.398V304.878L164.772 305.492M142.755 313.472C142.563 311.621 142.355 309.779 142.131 307.947M142.755 313.472C145.065 335.777 145.076 359.477 143.641 382.842M164.772 305.492L159.654 309.789C153.944 310.198 142.445 310.403 142.131 307.947M164.772 305.492C165.412 305.287 166.819 304.264 167.331 301.808C167.843 299.353 160.856 302.218 159.15 303.036M142.131 307.947C141.93 306.301 141.715 304.664 141.487 303.036M141.487 303.036C142.425 302.218 144.684 301.072 146.22 303.036C147.499 299.353 150.698 295.669 153.896 303.036C155.176 298.125 159.654 299.967 159.654 302.422M141.487 303.036C141.228 301.182 140.951 299.34 140.655 297.511M140.655 297.511L173.728 298.125C175.008 297.716 177.567 299.967 177.567 312.244C195.991 312.244 203.582 312.244 205.075 312.244V382.842H143.641M140.655 297.511C140.01 293.518 139.279 289.588 138.457 285.731M228.106 231.21C219.789 233.666 219.149 233.691 202.516 231.21L199.957 222.616C193.39 221.388 179.719 219.669 177.567 222.616C175.415 225.563 176.67 232.438 177.567 235.508C183.751 237.641 197.91 240.995 205.075 237.349C212.24 233.704 223.414 231.738 228.106 231.21ZM228.106 231.21C230.025 230.392 233.991 229 234.503 229.983M228.106 231.21C230.314 221.408 227.519 216.865 223.627 214.473M234.503 229.983C235.143 231.21 234.503 210.952 224.907 201.13M234.503 229.983C253.055 230.693 288.241 225.685 293.998 214.473C293.998 240.141 291.439 272.751 290.16 285.847C291.334 286.11 292.623 286.393 293.998 286.689M224.907 201.13C223.372 208.496 223.414 213.095 223.627 214.473M224.907 201.13C236.849 198.879 259.133 190.885 264.57 187.624C271.125 183.693 282.665 149.297 301.879 123.779M341.978 96.1536L345.817 105.362M341.978 96.1536C336.951 96.705 332.206 98.2081 327.728 100.451M341.978 96.1536V93.0842C336.007 91.6518 323.554 87.3136 321.507 81.4202C319.46 75.5268 319.374 56.0067 319.588 46.9833M345.817 105.362L331.198 121.323M345.817 105.362H350.295M354.773 105.362L369.487 96.1536M354.773 105.362L371.193 120.096M354.773 105.362H350.295M369.487 96.1536C373.325 96.5629 381.258 97.9953 382.282 100.451M369.487 96.1536L371.193 73.4395C384.201 77.7368 388.679 50.7255 368.207 57.4783C365.435 52.9764 360.147 42.8676 361.17 38.4476C362.45 32.9225 333.567 37.8337 332.382 40.9031C331.779 42.4669 325.979 45.3054 319.588 46.9833M382.282 100.451C379.203 105.838 375.282 112.768 371.193 120.096M382.282 100.451C387.239 102.281 401.743 104.765 414.142 115.184M399.554 161.84C404.365 175.689 396.515 231.535 392.869 257.608M393.157 270.892C392.082 270.818 391.4 270.879 391.238 271.114C390.977 271.489 391.433 267.944 392.27 261.905M393.157 270.892V277.866C394.305 278.001 395.605 278.161 396.995 278.343M393.157 270.892C398.222 271.239 412.013 274.588 421.305 277.019M421.305 277.019C422.448 277.318 423.522 277.603 424.504 277.866C425.49 274.831 426.229 271.847 427.069 268.747M421.305 277.019C420.666 279.962 419.386 285.356 419.386 283.391C419.386 282.765 417.61 282.081 414.908 281.406M414.908 281.406C410.244 280.242 402.818 279.105 396.995 278.343M414.908 281.406C414.908 291.331 414.456 309.011 412.86 317.156M411.07 321.453C408.861 323.695 406.591 325.136 404.032 318.997M411.07 321.453L438.514 326.692L452.04 270.892L428.203 264.975M411.07 321.453C411.588 320.927 412.376 319.63 412.86 317.156M404.032 318.997C399.554 323.295 396.376 322.196 394.815 318.2C391.616 321.269 389.319 322.681 386.76 317.156C382.725 317.86 377.64 318.61 377.289 314.7M404.032 318.997C404.032 330.661 402.625 360.865 396.995 388.367C412.761 408.012 440.242 473.494 452.013 503.78L448.174 505.304M396.995 278.343V283.391C388.466 284.824 374.526 292.224 370.884 295.721C367.097 299.358 374.605 298.739 386.76 296.283C382.072 302.653 379.41 307.193 378.161 310.403M377.289 314.7L343.258 307.333L347.303 290.144M377.289 314.7C377.194 313.641 377.446 312.24 378.161 310.403M428.203 264.975C439.339 220.737 436.646 171.919 432.821 149.562C429.978 132.949 422.543 122.245 414.142 115.184M428.203 264.975C427.893 266.206 427.401 267.523 427.069 268.747M392.869 257.608L356.692 250.241L347.303 290.144M392.869 257.608C392.653 259.149 392.452 260.587 392.27 261.905M378.161 310.403L347.096 303.65L359.251 254.538L392.27 261.905M412.86 317.156L432.272 320.698L443.717 272.743L427.069 268.747M347.736 165.524C343.033 154.734 335.624 136.259 331.198 121.323M347.736 165.524C348.037 162.303 360.217 139.768 371.193 120.096M347.736 165.524C345.689 161.104 348.589 123.574 350.295 105.362M347.736 165.524C344.85 196.601 339.361 251.322 335.509 277.402M347.736 165.524C345.671 196.87 342.447 252.442 342.349 277.402M327.728 100.451C326.897 104.367 328.489 112.182 331.198 121.323M327.728 100.451C317.864 105.392 309.299 113.923 301.879 123.779M347.303 290.144C346.594 290.144 344.793 290.144 343.258 290.144C342.581 289.799 342.319 285.03 342.349 277.402M293.998 286.689C307.598 289.613 329.593 293.77 332.382 291.986C333.144 291.498 334.237 286.011 335.509 277.402M293.998 286.689C284.402 313.215 265.21 371.793 265.21 393.893C265.21 415.993 265.662 486.181 262.676 518.513H265.85M335.509 347.672L322.147 403.101L295.971 518.513H291.439M335.509 347.672L332.382 301.194M335.509 347.672C335.866 360.973 340.022 410.345 343.258 412.309C346.494 414.274 404.534 478.932 427.069 513.515M335.509 347.672V277.402M427.069 513.515L448.174 505.304M427.069 513.515L429.622 518.513M291.439 518.513V552.277H218.51C218.723 546.343 224.907 535.948 247.937 541.841C266.362 533.983 267.556 528.335 265.85 526.494M291.439 518.513H265.85M265.85 526.494V518.513M265.85 526.494H289.52M448.174 505.304L466.087 530.791L417.467 556.574C415.761 558.007 410.942 560.012 405.312 556.574C398.275 552.277 411.709 540.613 417.467 541.227C422.073 541.718 427.489 526.289 429.622 518.513M448.174 505.304C450.733 510.452 436.872 516.255 429.622 518.513M414.142 115.184C439.63 100.942 418.449 88.7869 404.672 84.4896C397.848 81.6248 384.968 70.4929 388.039 48.8838C391.878 21.8724 373.325 25.5558 373.325 24.328C373.325 23.3458 379.296 22.2817 382.282 21.8724C379.723 19.6215 372.813 16.4701 365.648 21.8724C338.14 -10.664 297.197 40.9031 303.594 46.4282C306.732 49.1384 313.434 48.5988 319.588 46.9833M332.382 55.0227L331.198 68.5284H340.059M311.271 48.3143C302.102 54.6579 282.611 71.5979 290.8 81.4202C298.988 91.2425 289.947 100.246 284.402 103.52C276.861 108.841 269.799 120.341 301.879 123.779M115.451 258.756L114.233 270.5L64.4682 272.342M115.451 258.756L132.098 252.762M126.896 254.635C126.973 267.789 128.145 285.331 138.457 285.731M335.509 277.402H342.349M64.4682 272.342C64.3351 288.792 64.0568 321.497 28.6327 324.694" stroke="white" stroke-width="1.5"/>
</svg>
