<svg width="982" height="599" viewBox="0 0 982 599" fill="none" xmlns="http://www.w3.org/2000/svg">
<path d="M435 338V464H718.5V410.5M467.5 104H435V145.5M755.5 148V329M484.5 131.5V291H511.5M708 98.5V291H659.5M527 91H697M492.5 322H701M701 347.5H492.5M701 372H517M186.5 300.5C189.167 288.833 195 261.7 197 246.5C211.5 231 227.5 229.5 234 224.5C239.2 220.5 241.167 215.167 241.5 213C238.5 209.667 232.8 202.4 234 200C231.944 199.315 229.992 197.481 228.955 195.5M230.5 183.5C230.5 184.333 230.5 186.7 230.5 189.5C227.785 190.586 227.724 193.146 228.955 195.5M317.5 300.5C314.5 226.5 279.5 236.5 274.5 226C272.651 222.117 272 211 272.5 210.5C273 210 278 204.5 277.5 193C280.186 192.403 281.625 190.559 282.88 188M231.5 186C234.5 182.667 240.4 174.4 240 168C239.5 160 263.5 175 269.5 171.5C274.3 168.7 276.167 177 276.5 181.5C279.087 181.167 283.985 182 282.88 188M282.88 188C283.728 186.272 284.492 184.217 285.5 182C280.3 186 280.667 172.333 281.5 165C283 162.833 283.5 156.4 273.5 148C269.9 141.2 253.667 143.5 246 145.5C246.833 145.5 249.2 144.7 252 141.5C239.5 139.5 232 155.5 228 151C223.47 161.833 217.319 185.9 228.955 195.5M511.5 291H537M511.5 291C517.79 256.959 518.604 243.18 541.5 231.832M583 197C585.4 210.2 581 216.5 575 220C572.56 220.691 570.229 221.369 568 222.037M583 197C578.5 193.667 569.7 183.4 570.5 169C569 184 550.5 160.5 568 156.5C582 153.3 597.167 132.167 603 122C612 129.167 630.5 146.7 632.5 159.5C635 175.5 627 174.5 624.5 170.5C624.5 176.045 621.911 184.807 617.231 192M583 197C598.097 210.286 610.095 202.966 617.231 192M617.231 192C616.654 201.833 619.927 216.632 629.5 222.5M629.5 222.5C603.5 282.5 577.667 247.191 568 222.037M629.5 222.5C635.329 226.073 644.129 228.019 653 232.142M684.5 288C682.628 251.813 667.716 238.982 653 232.142M568 222.037C556.81 225.392 548.207 228.508 541.5 231.832M537 291V270.5M537 291H659.5M663 270.5L659.5 291M653 232.142C662.833 229.761 681.1 221.9 675.5 209.5C668.5 194 633 183 644 161.5C650 135 627 107 615 112.5C605.4 116.9 605 108 607 104C575.5 108.667 519.9 128.2 549.5 169C541 192 500 219.165 541.5 231.832M119.5 74.5L124 45.5L128.5 16.5M97.5 79.5L54.75 40.75L12 2M89 103.5L1 110" stroke="#E9E9E9" stroke-width="3"/>
<path d="M241.5 211.5C247.333 220.167 261.6 231.9 272 209.5M239.5 219L264.5 242C268 237.333 274.8 227.3 274 224.5C273.2 221.7 275.667 234 277 240.5L269 237M260.5 239L251 248.5L235.5 222.5M222.5 300.5C223 283.667 222.7 251.1 217.5 255.5" stroke="#E9E9E9" stroke-width="2"/>
<rect x="155.5" y="121.5" width="197" height="179" stroke="#E9E9E9"/>
<rect x="730" y="386.391" width="55" height="300" rx="10" transform="rotate(-45 730 386.391)" fill="#E9E9E9"/>
<path d="M813 238.5C813 348.957 723.457 438.5 613 438.5C502.543 438.5 413 348.957 413 238.5C413 128.043 502.543 38.5 613 38.5C723.457 38.5 813 128.043 813 238.5ZM443.674 238.5C443.674 332.016 519.484 407.826 613 407.826C706.516 407.826 782.326 332.016 782.326 238.5C782.326 144.984 706.516 69.1737 613 69.1737C519.484 69.1737 443.674 144.984 443.674 238.5Z" fill="#E9E9E9"/>
<rect x="115" y="101.5" width="280" height="362" stroke="#E9E9E9" stroke-width="2"/>
<line x1="154.999" y1="332.5" x2="348.001" y2="332.5" stroke="#E9E9E9"/>
<line x1="154" y1="355" x2="347.003" y2="355" stroke="#E9E9E9"/>
<line x1="154" y1="378" x2="347.003" y2="378" stroke="#E9E9E9"/>
<line x1="154" y1="400" x2="347.003" y2="400" stroke="#E9E9E9"/>
<path d="M302.5 269C303.167 278 304.1 297 302.5 301" stroke="#E9E9E9" stroke-width="2"/>
<path d="M323 100.5V16H513V66M361 100.5V52.5H476V92M397 185.5H419.5M397 297H419.5M397 223H412M412 245H397M397 264.5H412" stroke="#E9E9E9" stroke-width="3"/>
</svg>
