<svg width="271" height="117" viewBox="0 0 271 117" fill="none" xmlns="http://www.w3.org/2000/svg">
<path d="M60.617 66.564V65.564H59.617H41.46H40.7556L40.5184 66.2273L31.2638 92.1037L21.7627 66.2194L21.5222 65.564H20.824H2.59998H1.59998V66.564V114V115H2.59998H17.474H18.474V114V96.977L23.8215 114.295L24.0392 115H24.777H37.507H38.2448L38.4625 114.295L43.81 96.977V114V115H44.81H59.617H60.617V114V66.564ZM78.5895 115H79.3145L79.5399 114.311L81.6595 107.831H96.0215L98.141 114.311L98.3665 115H99.0915H114.769H116.198L115.709 113.658L98.4231 66.2216L98.1834 65.564H97.4835H80.3315H79.6325L79.3924 66.2205L62.0394 113.656L61.5479 115H62.9785H78.5895ZM156.401 66.564V65.564H155.401H115.469H114.469V66.564V78.356V79.356H115.469H126.931V114V115H127.931H142.805H143.805V114V79.356H155.401H156.401V78.356V66.564ZM171.696 115H172.421L172.646 114.311L174.766 107.831H189.128L191.247 114.311L191.473 115H192.198H207.876H209.305L208.816 113.658L191.529 66.2216L191.29 65.564H190.59H173.438H172.739L172.499 66.2205L155.146 113.656L154.654 115H156.085H171.696ZM165.35 63.6475L165.149 64.817H166.336H173.572H174.399L174.554 64.0051C174.735 63.0607 175.029 62.4813 175.349 62.1468C175.642 61.841 176.024 61.668 176.587 61.668C176.956 61.668 177.402 61.7607 177.935 61.9892L177.963 62.0013L177.993 62.0118C178.573 62.2192 179.157 62.4687 179.743 62.7612C180.85 63.3597 181.904 63.8294 182.904 64.1627C183.952 64.5121 185.064 64.683 186.235 64.683C189.326 64.683 191.917 63.6836 193.914 61.639C195.955 59.5955 197.278 56.3657 198.007 52.1276L198.209 50.958H197.022H189.719H188.857L188.73 51.8107C188.59 52.7501 188.318 53.3149 188.017 53.6363C187.744 53.9283 187.366 54.107 186.771 54.107C186.364 54.107 185.95 54.0419 185.527 53.9061C185.067 53.6948 184.435 53.3785 183.624 52.952C182.514 52.351 181.457 51.8796 180.454 51.5453C179.406 51.1959 178.293 51.025 177.123 51.025C174.022 51.025 171.41 52.0532 169.372 54.1405L169.372 54.1407C167.379 56.1834 166.079 59.411 165.35 63.6475ZM221.549 112.19L221.554 112.193C225.461 114.379 229.74 115.469 234.37 115.469C238.957 115.469 243.192 114.378 247.055 112.191C250.961 110.005 254.038 106.975 256.272 103.114C258.557 99.2419 259.691 94.8889 259.691 90.081C259.691 85.2731 258.557 80.9201 256.272 77.0476C254.039 73.1884 250.985 70.1795 247.12 68.0368C243.256 65.8496 239 64.76 234.37 64.76C229.74 64.76 225.463 65.8498 221.556 68.0352C217.691 70.1776 214.615 73.1859 212.337 77.0436C210.05 80.9171 208.915 85.2715 208.915 90.081C208.915 94.8905 210.05 99.2449 212.337 103.118C214.614 106.975 217.688 110.004 221.549 112.19ZM240.437 83.018L240.445 83.0268C241.854 84.6704 242.616 86.9817 242.616 90.081C242.616 93.1274 241.858 95.445 240.442 97.1392C239.061 98.7479 237.086 99.6 234.37 99.6C231.604 99.6 229.61 98.7444 228.232 97.1392C226.816 95.445 226.057 93.1274 226.057 90.081C226.057 86.9817 226.82 84.6704 228.229 83.0268L228.236 83.0179C229.617 81.3689 231.61 80.495 234.37 80.495C237.08 80.495 239.054 81.3653 240.437 83.018ZM85.9288 94.642L88.8405 85.6795L91.7522 94.642H85.9288ZM179.035 94.642L181.947 85.6795L184.859 94.642H179.035Z" fill="#263F8C" stroke="black" stroke-width="2"/>
<path d="M70.617 66.564V65.564H69.617H51.46H50.7556L50.5184 66.2273L41.2638 92.1037L31.7627 66.2194L31.5222 65.564H30.824H12.6H11.6V66.564V114V115H12.6H27.474H28.474V114V96.977L33.8215 114.295L34.0392 115H34.777H47.507H48.2448L48.4625 114.295L53.81 96.977V114V115H54.81H69.617H70.617V114V66.564ZM88.5895 115H89.3145L89.5399 114.311L91.6595 107.831H106.021L108.141 114.311L108.366 115H109.091H124.769H126.198L125.709 113.658L108.423 66.2216L108.183 65.564H107.483H90.3315H89.6325L89.3924 66.2205L72.0394 113.656L71.5479 115H72.9785H88.5895ZM166.401 66.564V65.564H165.401H125.469H124.469V66.564V78.356V79.356H125.469H136.931V114V115H137.931H152.805H153.805V114V79.356H165.401H166.401V78.356V66.564ZM181.696 115H182.421L182.646 114.311L184.766 107.831H199.128L201.247 114.311L201.473 115H202.198H217.876H219.305L218.816 113.658L201.529 66.2216L201.29 65.564H200.59H183.438H182.739L182.499 66.2205L165.146 113.656L164.654 115H166.085H181.696ZM175.35 63.6475L175.149 64.817H176.336H183.572H184.399L184.554 64.0051C184.735 63.0607 185.029 62.4813 185.349 62.1468C185.642 61.841 186.024 61.668 186.587 61.668C186.956 61.668 187.402 61.7607 187.935 61.9892L187.963 62.0013L187.993 62.0118C188.573 62.2192 189.157 62.4687 189.743 62.7612C190.85 63.3597 191.904 63.8294 192.904 64.1627C193.952 64.5121 195.064 64.683 196.235 64.683C199.326 64.683 201.917 63.6836 203.914 61.639C205.955 59.5955 207.278 56.3657 208.007 52.1276L208.209 50.958H207.022H199.719H198.857L198.73 51.8107C198.59 52.7501 198.318 53.3149 198.017 53.6363C197.744 53.9283 197.366 54.107 196.771 54.107C196.364 54.107 195.95 54.0419 195.527 53.9061C195.067 53.6948 194.435 53.3785 193.624 52.952C192.514 52.351 191.457 51.8796 190.454 51.5453C189.406 51.1959 188.293 51.025 187.123 51.025C184.022 51.025 181.41 52.0532 179.372 54.1405L179.372 54.1407C177.379 56.1834 176.079 59.411 175.35 63.6475ZM231.549 112.19L231.554 112.193C235.461 114.379 239.74 115.469 244.37 115.469C248.957 115.469 253.192 114.378 257.055 112.191C260.961 110.005 264.038 106.975 266.272 103.114C268.557 99.2419 269.691 94.8889 269.691 90.081C269.691 85.2731 268.557 80.9201 266.272 77.0476C264.039 73.1884 260.985 70.1795 257.12 68.0368C253.256 65.8496 249 64.76 244.37 64.76C239.74 64.76 235.463 65.8498 231.556 68.0352C227.691 70.1776 224.615 73.1859 222.337 77.0436C220.05 80.9171 218.915 85.2715 218.915 90.081C218.915 94.8905 220.05 99.2449 222.337 103.118C224.614 106.975 227.688 110.004 231.549 112.19ZM250.437 83.018L250.445 83.0268C251.854 84.6704 252.616 86.9817 252.616 90.081C252.616 93.1274 251.858 95.445 250.442 97.1392C249.061 98.7479 247.086 99.6 244.37 99.6C241.604 99.6 239.61 98.7444 238.232 97.1392C236.816 95.445 236.057 93.1274 236.057 90.081C236.057 86.9817 236.82 84.6704 238.229 83.0268L238.236 83.0179C239.617 81.3689 241.61 80.495 244.37 80.495C247.08 80.495 249.054 81.3653 250.437 83.018ZM95.9288 94.642L98.8405 85.6795L101.752 94.642H95.9288ZM189.035 94.642L191.947 85.6795L194.859 94.642H189.035Z" fill="#50D2A5" stroke="black" stroke-width="2"/>
<path d="M14.21 10.795V15.58H26.31V24.765H14.21V30.265H27.96V40H2V1.05999H27.96V10.795H14.21Z" fill="black"/>
<path d="M79.3665 1.05999V40H67.2115V20.585L61.2165 40H50.7665L44.7715 20.585V40H32.5615V1.05999H47.5215L56.1015 24.435L64.4615 1.05999H79.3665Z" fill="black"/>
<path d="M116.721 14.425C116.721 16.8817 116.153 19.1183 115.016 21.135C113.879 23.115 112.193 24.6917 109.956 25.865C107.756 27.0383 105.079 27.625 101.926 27.625H97.086V40H84.876V1.05999H101.926C106.693 1.05999 110.341 2.26999 112.871 4.68999C115.438 7.10999 116.721 10.355 116.721 14.425ZM100.551 18C103.081 18 104.346 16.8083 104.346 14.425C104.346 12.0417 103.081 10.85 100.551 10.85H97.086V18H100.551Z" fill="black"/>
<path d="M140.174 40L132.859 26.03H132.804V40H120.594V1.05999H138.744C141.897 1.05999 144.592 1.62832 146.829 2.76499C149.065 3.86499 150.734 5.38666 151.834 7.32999C152.97 9.23665 153.539 11.4 153.539 13.82C153.539 16.4233 152.805 18.7333 151.339 20.75C149.909 22.7667 147.837 24.215 145.124 25.095L153.594 40H140.174ZM132.804 17.89H137.644C138.817 17.89 139.697 17.6333 140.284 17.12C140.87 16.57 141.164 15.7267 141.164 14.59C141.164 13.5633 140.852 12.7567 140.229 12.17C139.642 11.5833 138.78 11.29 137.644 11.29H132.804V17.89Z" fill="black"/>
<path d="M169.649 10.795V15.58H181.749V24.765H169.649V30.265H183.399V40H157.439V1.05999H183.399V10.795H169.649Z" fill="black"/>
<path d="M211.871 14.37C211.394 13.6 210.716 13.0133 209.836 12.61C208.956 12.17 207.893 11.95 206.646 11.95C204.299 11.95 202.484 12.72 201.201 14.26C199.918 15.7633 199.276 17.835 199.276 20.475C199.276 23.5183 199.991 25.7917 201.421 27.295C202.851 28.7983 205.051 29.55 208.021 29.55C210.844 29.55 213.118 28.4133 214.841 26.14H205.106V17.505H224.961V29.715C223.274 32.6117 220.946 35.105 217.976 37.195C215.006 39.2483 211.248 40.275 206.701 40.275C202.668 40.275 199.148 39.45 196.141 37.8C193.171 36.1133 190.879 33.7667 189.266 30.76C187.689 27.7533 186.901 24.325 186.901 20.475C186.901 16.625 187.689 13.1967 189.266 10.19C190.879 7.18332 193.171 4.85499 196.141 3.20499C199.111 1.51832 202.594 0.674988 206.591 0.674988C211.688 0.674988 215.831 1.90332 219.021 4.35999C222.248 6.81666 224.154 10.1533 224.741 14.37H211.871Z" fill="black"/>
<path d="M254.328 34.115H241.348L239.423 40H226.608L240.853 1.05999H254.933L269.123 40H256.253L254.328 34.115ZM251.358 24.93L247.838 14.095L244.318 24.93H251.358Z" fill="black"/>
</svg>
