<svg width="214" height="76" viewBox="0 0 214 76" fill="none" xmlns="http://www.w3.org/2000/svg">
<mask id="path-1-inside-1_387_882" fill="white">
<path d="M75.1699 37.585C75.1699 58.3426 58.3426 75.1699 37.585 75.1699C16.8274 75.1699 0 58.3426 0 37.585C0 16.8274 16.8274 0 37.585 0C58.3426 0 75.1699 16.8274 75.1699 37.585ZM3.54819 37.585C3.54819 56.383 18.787 71.6218 37.585 71.6218C56.383 71.6218 71.6218 56.383 71.6218 37.585C71.6218 18.787 56.383 3.54819 37.585 3.54819C18.787 3.54819 3.54819 18.787 3.54819 37.585Z"/>
</mask>
<path d="M75.1699 37.585C75.1699 58.3426 58.3426 75.1699 37.585 75.1699C16.8274 75.1699 0 58.3426 0 37.585C0 16.8274 16.8274 0 37.585 0C58.3426 0 75.1699 16.8274 75.1699 37.585ZM3.54819 37.585C3.54819 56.383 18.787 71.6218 37.585 71.6218C56.383 71.6218 71.6218 56.383 71.6218 37.585C71.6218 18.787 56.383 3.54819 37.585 3.54819C18.787 3.54819 3.54819 18.787 3.54819 37.585Z" fill="#00AC70" stroke="black" stroke-width="2" mask="url(#path-1-inside-1_387_882)"/>
<mask id="path-2-inside-2_387_882" fill="white">
<path d="M68.7139 37.5847C68.7139 54.7766 54.7771 68.7134 37.5852 68.7134C20.3933 68.7134 6.45654 54.7766 6.45654 37.5847C6.45654 20.3928 20.3933 6.45605 37.5852 6.45605C54.7771 6.45605 68.7139 20.3928 68.7139 37.5847ZM10.2654 37.5847C10.2654 52.673 22.4969 64.9045 37.5852 64.9045C52.6735 64.9045 64.905 52.673 64.905 37.5847C64.905 22.4964 52.6735 10.2649 37.5852 10.2649C22.4969 10.2649 10.2654 22.4964 10.2654 37.5847Z"/>
</mask>
<path d="M68.7139 37.5847C68.7139 54.7766 54.7771 68.7134 37.5852 68.7134C20.3933 68.7134 6.45654 54.7766 6.45654 37.5847C6.45654 20.3928 20.3933 6.45605 37.5852 6.45605C54.7771 6.45605 68.7139 20.3928 68.7139 37.5847ZM10.2654 37.5847C10.2654 52.673 22.4969 64.9045 37.5852 64.9045C52.6735 64.9045 64.905 52.673 64.905 37.5847C64.905 22.4964 52.6735 10.2649 37.5852 10.2649C22.4969 10.2649 10.2654 22.4964 10.2654 37.5847Z" fill="#263F8C" stroke="black" stroke-width="2" mask="url(#path-2-inside-2_387_882)"/>
<path d="M27.5704 50.2539C26.5543 51.1515 25.7678 51.0642 24.7212 49.9451C23.9919 48.9005 24.0423 48.3397 25.1107 47.044L26.9862 45.0319C27.6715 44.2451 28.3125 43.8207 29.1283 43.8715C29.9347 43.9596 30.16 44.1295 30.4915 44.4517C30.8156 44.9048 31.0745 45.2104 31.0757 45.8055C31.0086 46.3019 30.8597 46.6457 29.9072 47.7396C29.3239 48.4466 28.3479 49.5991 27.5704 50.2539Z" fill="#00AC70"/>
<path d="M21.0212 42.4415L22.5791 40.8942C23.5355 40.1311 23.9972 39.8845 24.7212 39.9272C25.6026 40.1294 25.8374 40.4425 26.0844 40.7008C26.4085 41.1539 26.4727 41.4595 26.4739 42.0547C26.4236 42.6122 26.2813 42.9804 25.3054 43.9887C24.7221 44.6957 24.3303 45.0746 23.5528 45.7294C22.5136 46.6475 21.7145 46.5352 20.6318 45.3426C19.9024 44.2979 19.9529 43.7372 21.0212 42.4415Z" fill="#00AC70"/>
<path d="M32.0453 54.0385C31.0305 54.935 30.2447 54.8491 29.2002 53.7341C28.4708 52.6894 28.5213 52.1287 29.5897 50.833L31.4611 48.8166C32.1541 48.2179 32.3832 48.1 33.019 48.0429C33.685 47.9854 34.3821 48.2363 34.7716 48.6232C35.1611 49.01 35.391 49.2887 35.3558 49.7836C35.3206 50.2785 35.2928 50.4998 34.3821 51.5243C33.7987 52.2313 32.8227 53.3838 32.0453 54.0385Z" fill="#00AC70"/>
<path d="M36.8075 57.4404C36.2905 57.6781 35.9357 57.6533 35.6391 57.6338C35.2384 57.5409 34.8371 57.4008 34.4707 57.0535C34.1686 56.6994 33.9028 56.2783 33.8865 56.0865C33.7959 55.5337 33.9328 55.411 34.2759 54.7327C34.626 54.1732 34.8575 53.9838 35.2496 53.5722C35.9426 52.9736 36.1717 52.8557 36.8075 52.7986C37.4735 52.7411 37.5013 52.8039 37.9759 52.992C38.4505 53.1801 38.7549 53.7656 38.7549 53.7656C38.7549 53.7656 39.3445 54.4876 38.3654 55.8931C37.667 56.7494 37.2341 57.2411 36.8075 57.4404Z" fill="#00AC70"/>
<path d="M56.2812 39.3204C57.1119 38.5093 57.5229 37.9803 58.2285 36.9995C58.9371 35.7922 59.0075 35.1986 59.0075 33.8447C59.0075 32.4909 59.2022 31.3304 58.4233 28.8162C57.6444 26.3019 54.3306 24.1246 51.6075 21.6601L51.5356 21.5981C49.0722 19.4729 47.669 18.2624 44.2075 17.9854C40.8567 18.065 39.6806 18.2983 37.7812 19.726C37.0384 20.2231 36.3156 20.7126 35.4531 21.4667C34.3682 22.4984 33.3047 23.3953 30.9654 25.7216C30.4626 26.1611 30.079 27.0423 30.5759 27.8491C31.2018 28.7688 31.6285 29.1105 32.5233 29.3964C33.5974 29.4497 33.3187 28.8308 37.9759 25.1414C38.967 24.5616 40.162 24.5724 41.4812 25.3348C45.383 28.497 55.8236 38.866 56.2771 39.3163L56.2812 39.3204Z" fill="#00AC70"/>
<path d="M37.0022 18.1788C28.911 17.2583 25.4353 19.7912 19.4759 27.0755C18.8776 28.0599 16.7159 31.2146 16.6586 32.2563C16.5902 33.497 16.4825 34.4085 17.0342 35.8049C17.775 37.8377 18.8227 39.0627 20.2549 40.715C22.1712 38.5425 23.9549 38.2931 24.5391 38.2787C25.1233 38.2644 26.097 38.2931 26.9862 38.8733C27.8754 39.4535 28.7463 40.3242 28.8233 42.0547C30.1204 41.8967 31.539 42.6575 32.1338 43.3217C32.7154 43.8546 32.8064 44.5039 33.1075 45.6425C33.9597 46.3195 37.0022 45.8055 37.5756 49.7836C38.3294 50.0977 39.5338 49.8345 40.5075 50.833C41.4812 51.8316 40.9499 53.3658 41.2864 53.3788C41.8727 53.5842 42.4549 53.5722 43.0391 52.992C43.735 51.7294 43.3312 51.3288 43.0391 50.833L33.6917 41.9678C33.3664 41.6259 33.3206 41.1492 33.6917 40.7008C34.0812 40.4206 34.4053 40.3857 34.7716 40.7008L47.3233 52.4118C48.1118 53.1696 49.4534 53.0084 50.0496 52.4118C50.8059 51.3215 50.2443 50.5081 49.8549 50.0909L37.197 38.2931C36.8717 37.9512 36.6312 37.581 37.0022 37.1326C37.5312 36.5922 37.8044 36.8175 38.1707 37.1326L51.218 48.9305C52.568 50.1085 53.2553 49.9176 53.7496 49.3173C54.4874 48.3674 54.6295 47.5674 53.7496 46.6096L40.897 34.6184C40.4475 34.122 40.4816 33.8774 40.897 33.4579C41.3216 33.0293 41.7076 33.5242 42.0654 33.8447L54.5286 45.3426C55.6128 46.3084 56.8986 46.1339 57.4496 45.3426C58.0438 44.6172 57.6054 43.6755 56.8654 42.9348L40.5075 26.8821C39.8261 26.3782 38.9371 26.2181 38.1706 27.0755L35.2496 29.7832C33.8764 31.2321 31.5498 31.6397 29.9791 29.7832C28.465 28.1283 28.2225 26.3566 29.4075 24.7546C30.8446 23.2981 31.6543 22.538 33.1075 21.2733C34.5152 19.8898 35.3735 19.2204 37.0022 18.1788Z" fill="#00AC70"/>
<path d="M37.0022 18.1788C28.911 17.2583 25.4353 19.7912 19.4759 27.0755C18.8776 28.0599 16.7159 31.2146 16.6586 32.2563C16.5902 33.497 16.4825 34.4085 17.0342 35.8049C17.775 37.8377 18.8227 39.0627 20.2549 40.715C22.1712 38.5425 23.9549 38.2931 24.5391 38.2787C25.1233 38.2644 26.097 38.2931 26.9862 38.8733C27.8754 39.4535 28.7463 40.3242 28.8233 42.0547C30.1204 41.8967 31.539 42.6575 32.1338 43.3217C32.7154 43.8546 32.8064 44.5039 33.1075 45.6425C33.9597 46.3195 37.0022 45.8055 37.5756 49.7836C38.3294 50.0977 39.5338 49.8345 40.5075 50.833C41.4812 51.8316 40.9499 53.3658 41.2864 53.3788C41.8727 53.5842 42.4549 53.5722 43.0391 52.992C43.735 51.7294 43.3312 51.3288 43.0391 50.833L33.6917 41.9678C33.3664 41.6259 33.3206 41.1492 33.6917 40.7008C34.0812 40.4206 34.4053 40.3857 34.7716 40.7008L47.3233 52.4118C48.1118 53.1696 49.4534 53.0084 50.0496 52.4118C50.8059 51.3215 50.2443 50.5081 49.8549 50.0909L37.197 38.2931C36.8717 37.9512 36.6312 37.581 37.0022 37.1326C37.5312 36.5922 37.8044 36.8175 38.1707 37.1326L51.218 48.9305C52.568 50.1085 53.2553 49.9176 53.7496 49.3173C54.4874 48.3674 54.6295 47.5674 53.7496 46.6096L40.897 34.6184C40.4475 34.122 40.4816 33.8774 40.897 33.4579C41.3216 33.0293 41.7076 33.5242 42.0654 33.8447L54.5286 45.3426C55.6128 46.3084 56.8986 46.1339 57.4496 45.3426C58.0438 44.6172 57.6054 43.6755 56.8654 42.9348L40.5075 26.8821C39.8261 26.3782 38.9371 26.2181 38.1706 27.0755L35.2496 29.7832C33.8764 31.2321 31.5498 31.6397 29.9791 29.7832C28.465 28.1283 28.2225 26.3566 29.4075 24.7546C30.8446 23.2981 31.6543 22.538 33.1075 21.2733C34.5152 19.8898 35.3735 19.2204 37.0022 18.1788Z" fill="#263F8C"/>
<path d="M56.2812 39.3204C57.1119 38.5093 57.5229 37.9803 58.2285 36.9995C58.9371 35.7922 59.0075 35.1986 59.0075 33.8447C59.0075 32.4909 59.2022 31.3304 58.4233 28.8162C57.6444 26.3019 54.3306 24.1246 51.6075 21.6601M56.2812 39.3204L56.2771 39.3163M56.2812 39.3204C56.2799 39.3192 56.2785 39.3178 56.2771 39.3163M51.6075 21.6601L51.5356 21.5981M51.6075 21.6601C51.5834 21.6393 51.5595 21.6186 51.5356 21.5981M51.5356 21.5981C49.0722 19.4729 47.669 18.2624 44.2075 17.9854C40.8567 18.065 39.6806 18.2983 37.7812 19.726C37.0384 20.2231 36.3156 20.7126 35.4531 21.4667C34.3682 22.4984 33.3047 23.3953 30.9654 25.7216C30.4626 26.1611 30.079 27.0423 30.5759 27.8491C31.2018 28.7688 31.6285 29.1105 32.5233 29.3964C33.5974 29.4497 33.3187 28.8308 37.9759 25.1414C38.967 24.5616 40.162 24.5724 41.4812 25.3348C45.383 28.497 55.8236 38.866 56.2771 39.3163M37.0022 18.1788C28.911 17.2583 25.4353 19.7912 19.4759 27.0755C18.8776 28.0599 16.7159 31.2146 16.6586 32.2563C16.5902 33.497 16.4825 34.4085 17.0342 35.8049C17.775 37.8377 18.8227 39.0627 20.2549 40.715C22.1712 38.5425 23.9549 38.2931 24.5391 38.2787C25.1233 38.2644 26.097 38.2931 26.9862 38.8733C27.8754 39.4535 28.7463 40.3242 28.8233 42.0547C30.1204 41.8967 31.539 42.6575 32.1338 43.3217C32.7154 43.8546 32.8064 44.5039 33.1075 45.6425C33.9597 46.3195 37.0022 45.8055 37.5756 49.7836C38.3294 50.0977 39.5338 49.8345 40.5075 50.833C41.4812 51.8316 40.9499 53.3658 41.2864 53.3788C41.8727 53.5842 42.4549 53.5722 43.0391 52.992C43.735 51.7294 43.3312 51.3288 43.0391 50.833L33.6917 41.9678C33.3664 41.6259 33.3206 41.1492 33.6917 40.7008C34.0812 40.4206 34.4053 40.3857 34.7716 40.7008L47.3233 52.4118C48.1118 53.1696 49.4534 53.0084 50.0496 52.4118C50.8059 51.3215 50.2443 50.5081 49.8549 50.0909L37.197 38.2931C36.8717 37.9512 36.6312 37.581 37.0022 37.1326C37.5312 36.5922 37.8044 36.8175 38.1707 37.1326L51.218 48.9305C52.568 50.1085 53.2553 49.9176 53.7496 49.3173C54.4874 48.3674 54.6295 47.5674 53.7496 46.6096L40.897 34.6184C40.4475 34.122 40.4816 33.8774 40.897 33.4579C41.3216 33.0293 41.7076 33.5242 42.0654 33.8447L54.5286 45.3426C55.6128 46.3084 56.8986 46.1339 57.4496 45.3426C58.0438 44.6172 57.6054 43.6755 56.8654 42.9348L40.5075 26.8821C39.8261 26.3782 38.9371 26.2181 38.1706 27.0755L35.2496 29.7832C33.8764 31.2321 31.5498 31.6397 29.9791 29.7832C28.465 28.1283 28.2225 26.3566 29.4075 24.7546C30.8446 23.2981 31.6543 22.538 33.1075 21.2733C34.5152 19.8898 35.3735 19.2204 37.0022 18.1788ZM21.0212 42.4415L22.5791 40.8942C23.5355 40.1311 23.9972 39.8845 24.7212 39.9272C25.6026 40.1294 25.8374 40.4425 26.0844 40.7008C26.4085 41.1539 26.4727 41.4595 26.4739 42.0547C26.4236 42.6122 26.2813 42.9804 25.3054 43.9887C24.7221 44.6957 24.3303 45.0746 23.5528 45.7294C22.5136 46.6475 21.7145 46.5352 20.6318 45.3426C19.9024 44.2979 19.9529 43.7372 21.0212 42.4415ZM27.5704 50.2539C28.3479 49.5991 29.3239 48.4466 29.9072 47.7396C30.8597 46.6457 31.0086 46.3019 31.0757 45.8055C31.0745 45.2104 30.8156 44.9048 30.4915 44.4517C30.16 44.1295 29.9347 43.9596 29.1283 43.8715C28.3125 43.8207 27.6715 44.2451 26.9862 45.0319L25.1107 47.044C24.0423 48.3397 23.9919 48.9005 24.7212 49.9451C25.7678 51.0642 26.5543 51.1515 27.5704 50.2539ZM32.0453 54.0385C32.8227 53.3838 33.7987 52.2313 34.3821 51.5243C35.2928 50.4998 35.3206 50.2785 35.3558 49.7836C35.391 49.2887 35.1611 49.01 34.7716 48.6232C34.3821 48.2363 33.685 47.9854 33.019 48.0429C32.3832 48.1 32.1541 48.2179 31.4611 48.8166L29.5897 50.833C28.5213 52.1287 28.4708 52.6894 29.2002 53.7341C30.2447 54.8491 31.0305 54.935 32.0453 54.0385ZM36.8075 57.4404C37.2341 57.2411 37.667 56.7494 38.3654 55.8931C39.3445 54.4876 38.7549 53.7656 38.7549 53.7656C38.7549 53.7656 38.4505 53.1801 37.9759 52.992C37.5013 52.8039 37.4735 52.7411 36.8075 52.7986C36.1717 52.8557 35.9426 52.9736 35.2496 53.5722C34.8575 53.9838 34.626 54.1732 34.2759 54.7327C33.9328 55.411 33.7959 55.5337 33.8865 56.0865C33.9028 56.2783 34.1686 56.6994 34.4707 57.0535C34.8371 57.4008 35.2384 57.5409 35.6391 57.6338C35.9357 57.6533 36.2905 57.6781 36.8075 57.4404Z" stroke="black"/>
<path d="M116.883 42.6879V42.1879H116.383H108.01H107.658L107.539 42.5196L103.307 54.3519L98.9625 42.5156L98.8422 42.1879H98.4931H90.0889H89.5889V42.6879V64.5638V65.0638H90.0889H96.9482H97.4482V64.5638V56.9707L99.8384 64.7113L99.9472 65.0638H100.316H106.187H106.556L106.665 64.7113L109.055 56.9707V64.5638V65.0638H109.555H116.383H116.883V64.5638V42.6879ZM125.133 65.0638H125.495L125.608 64.7192L126.577 61.7577H133.143L134.112 64.7192L134.225 65.0638H134.587H141.818H142.532L142.287 64.3926L134.316 42.5167L134.196 42.1879H133.846H125.936H125.586L125.466 42.5162L117.464 64.392L117.218 65.0638H117.933H125.133ZM161.055 42.6879V42.1879H160.555H142.14H141.64V42.6879V48.126V48.626H142.14H147.387V64.5638V65.0638H147.887H154.746H155.246V64.5638V48.626H160.555H161.055V48.126V42.6879ZM168.07 65.0638H168.433L168.545 64.7192L169.514 61.7577H176.081L177.05 64.7192L177.162 65.0638H177.525H184.755H185.469L185.225 64.3926L177.253 42.5167L177.133 42.1879H176.783H168.873H168.524L168.404 42.5162L160.401 64.392L160.155 65.0638H160.871H168.07ZM165.105 41.3363L165.005 41.9211H165.598H168.935H169.349L169.426 41.5151C169.509 41.0837 169.642 40.8246 169.783 40.6777C169.91 40.5452 170.075 40.4689 170.326 40.4689C170.49 40.4689 170.69 40.51 170.932 40.6139L170.946 40.62L170.961 40.6252C171.227 40.7202 171.495 40.8346 171.763 40.9688C172.275 41.2454 172.763 41.4629 173.226 41.6174C173.714 41.7799 174.231 41.8593 174.775 41.8593C176.21 41.8593 177.415 41.3951 178.344 40.4437C179.293 39.493 179.906 37.9945 180.242 36.0369L180.343 35.4521H179.75H176.382H175.951L175.887 35.8785C175.823 36.3074 175.7 36.5593 175.569 36.6996C175.451 36.8252 175.288 36.9044 175.022 36.9044C174.839 36.9044 174.653 36.8752 174.463 36.8143C174.252 36.7173 173.961 36.5721 173.589 36.3763C173.076 36.0983 172.586 35.88 172.121 35.725C171.634 35.5624 171.116 35.483 170.573 35.483C169.133 35.483 167.918 35.9607 166.971 36.9315L166.971 36.9316C166.044 37.8818 165.442 39.3794 165.105 41.3363ZM191.042 63.7629L191.044 63.7642C192.852 64.7757 194.831 65.2801 196.973 65.2801C199.095 65.2801 201.054 64.7755 202.842 63.7636C204.649 62.7523 206.073 61.3503 207.107 59.5639C208.164 57.7715 208.689 55.757 208.689 53.5332C208.689 51.3093 208.164 49.2947 207.107 47.5023C206.073 45.7169 204.66 44.3245 202.872 43.3331C201.084 42.3211 199.114 41.8172 196.973 41.8172C194.832 41.8172 192.852 42.3213 191.045 43.3325C189.256 44.3239 187.833 45.7162 186.779 47.501C185.721 49.2938 185.195 51.3088 185.195 53.5332C185.195 55.7575 185.721 57.7725 186.779 59.5653C187.832 61.3495 189.255 62.7512 191.042 63.7629ZM199.741 50.3009L199.745 50.3053C200.387 51.0542 200.737 52.1101 200.737 53.5332C200.737 54.9316 200.389 55.9908 199.743 56.7634C199.115 57.4946 198.217 57.8842 196.973 57.8842C195.707 57.8842 194.799 57.4929 194.172 56.7634C193.527 55.9908 193.178 54.9316 193.178 53.5332C193.178 52.1101 193.528 51.0542 194.17 50.3053L194.174 50.3008C194.802 49.5509 195.709 49.1513 196.973 49.1513C198.214 49.1513 199.112 49.5491 199.741 50.3009ZM128.571 55.5977L129.86 51.629L131.149 55.5977H128.571ZM171.508 55.5977L172.797 51.629L174.087 55.5977H171.508Z" fill="#263F8C" stroke="black"/>
<path d="M121.494 42.6879V42.1879H120.994H112.621H112.269L112.15 42.5196L107.918 54.3519L103.574 42.5156L103.454 42.1879H103.104H94.7002H94.2002V42.6879V64.5638V65.0638H94.7002H101.56H102.06V64.5638V56.9707L104.45 64.7113L104.559 65.0638H104.927H110.798H111.167L111.276 64.7113L113.666 56.9707V64.5638V65.0638H114.166H120.994H121.494V64.5638V42.6879ZM129.744 65.0638H130.106L130.219 64.7192L131.188 61.7577H137.755L138.724 64.7192L138.836 65.0638H139.199H146.429H147.143L146.899 64.3926L138.927 42.5167L138.807 42.1879H138.457H130.547H130.198L130.078 42.5162L122.075 64.392L121.829 65.0638H122.545H129.744ZM165.667 42.6879V42.1879H165.167H146.751H146.251V42.6879V48.126V48.626H146.751H151.998V64.5638V65.0638H152.498H159.358H159.858V64.5638V48.626H165.167H165.667V48.126V42.6879ZM172.681 65.0638H173.044L173.157 64.7192L174.125 61.7577H180.692L181.661 64.7192L181.774 65.0638H182.136H189.366H190.081L189.836 64.3926L181.864 42.5167L181.745 42.1879H181.395H173.485H173.135L173.015 42.5162L165.013 64.392L164.767 65.0638H165.482H172.681ZM169.717 41.3363L169.616 41.9211H170.21H173.547H173.96L174.038 41.5151C174.12 41.0837 174.254 40.8246 174.394 40.6777C174.521 40.5452 174.687 40.4689 174.937 40.4689C175.101 40.4689 175.301 40.51 175.543 40.6139L175.558 40.62L175.572 40.6252C175.838 40.7202 176.106 40.8346 176.375 40.9688C176.886 41.2454 177.374 41.4629 177.838 41.6174C178.325 41.7799 178.843 41.8593 179.386 41.8593C180.821 41.8593 182.026 41.3951 182.956 40.4437C183.905 39.493 184.517 37.9945 184.854 36.0369L184.954 35.4521H184.361H180.993H180.562L180.498 35.8785C180.435 36.3074 180.311 36.5593 180.18 36.6996C180.062 36.8252 179.899 36.9044 179.633 36.9044C179.451 36.9044 179.265 36.8752 179.074 36.8143C178.863 36.7173 178.573 36.5721 178.201 36.3763C177.687 36.0983 177.198 35.88 176.733 35.725C176.245 35.5624 175.728 35.483 175.184 35.483C173.745 35.483 172.53 35.9607 171.582 36.9315L171.582 36.9316C170.655 37.8818 170.053 39.3794 169.717 41.3363ZM195.653 63.7629L195.655 63.7642C197.463 64.7757 199.443 65.2801 201.585 65.2801C203.706 65.2801 205.666 64.7755 207.453 63.7636C209.26 62.7523 210.684 61.3503 211.718 59.5639C212.776 57.7715 213.301 55.757 213.301 53.5332C213.301 51.3093 212.776 49.2947 211.718 47.5023C210.685 45.7169 209.271 44.3245 207.483 43.3331C205.695 42.3211 203.726 41.8172 201.585 41.8172C199.443 41.8172 197.464 42.3213 195.656 43.3325C193.868 44.3239 192.444 45.7162 191.39 47.501C190.332 49.2938 189.807 51.3088 189.807 53.5332C189.807 55.7575 190.332 57.7725 191.39 59.5653C192.444 61.3495 193.866 62.7512 195.653 63.7629ZM204.353 50.3009L204.357 50.3053C204.999 51.0542 205.349 52.1101 205.349 53.5332C205.349 54.9316 205 55.9908 204.355 56.7634C203.727 57.4946 202.828 57.8842 201.585 57.8842C200.318 57.8842 199.41 57.4929 198.784 56.7634C198.138 55.9908 197.79 54.9316 197.79 53.5332C197.79 52.1101 198.14 51.0542 198.782 50.3053L198.785 50.3008C199.413 49.5509 200.321 49.1513 201.585 49.1513C202.825 49.1513 203.723 49.5491 204.353 50.3009ZM133.182 55.5977L134.471 51.629L135.761 55.5977H133.182ZM176.119 55.5977L177.409 51.629L178.698 55.5977H176.119Z" fill="#50D2A5" stroke="black"/>
<path d="M95.4428 16.9688V19.1754H101.023V23.4112H95.4428V25.9476H101.784V30.4371H89.812V12.4793H101.784V16.9688H95.4428Z" fill="white"/>
<path d="M125.491 12.4793V30.4371H119.885V21.4836L117.121 30.4371H112.301L109.537 21.4836V30.4371H103.906V12.4793H110.805L114.762 23.259L118.617 12.4793H125.491Z" fill="white"/>
<path d="M142.717 18.6428C142.717 19.7757 142.455 20.8072 141.931 21.7372C141.407 22.6503 140.629 23.3774 139.598 23.9185C138.583 24.4596 137.349 24.7302 135.894 24.7302H133.662V30.4371H128.032V12.4793H135.894C138.093 12.4793 139.775 13.0373 140.942 14.1533C142.126 15.2694 142.717 16.7658 142.717 18.6428ZM135.26 20.2914C136.427 20.2914 137.01 19.7419 137.01 18.6428C137.01 17.5437 136.427 16.9941 135.26 16.9941H133.662V20.2914H135.26Z" fill="white"/>
<path d="M153.533 30.4371L150.16 23.9946H150.134V30.4371H144.503V12.4793H152.873C154.328 12.4793 155.571 12.7414 156.602 13.2656C157.633 13.7729 158.403 14.4746 158.91 15.3708C159.434 16.2501 159.696 17.2478 159.696 18.3638C159.696 19.5643 159.358 20.6296 158.682 21.5597C158.022 22.4897 157.067 23.1576 155.816 23.5634L159.722 30.4371H153.533ZM150.134 20.2407H152.366C152.907 20.2407 153.313 20.1224 153.584 19.8856C153.854 19.632 153.99 19.2431 153.99 18.7189C153.99 18.2454 153.846 17.8734 153.558 17.6029C153.288 17.3323 152.89 17.197 152.366 17.197H150.134V20.2407Z" fill="white"/>
<path d="M167.126 16.9688V19.1754H172.706V23.4112H167.126V25.9476H173.467V30.4371H161.495V12.4793H173.467V16.9688H167.126Z" fill="white"/>
<path d="M186.597 18.6174C186.377 18.2623 186.065 17.9918 185.659 17.8058C185.253 17.6029 184.763 17.5014 184.188 17.5014C183.105 17.5014 182.268 17.8565 181.677 18.5667C181.085 19.26 180.789 20.2154 180.789 21.4328C180.789 22.8363 181.119 23.8847 181.778 24.578C182.438 25.2713 183.452 25.6179 184.822 25.6179C186.124 25.6179 187.172 25.0937 187.967 24.0453H183.477V20.0632H192.634V25.694C191.856 27.0298 190.782 28.1797 189.413 29.1435C188.043 30.0904 186.31 30.5639 184.213 30.5639C182.353 30.5639 180.73 30.1834 179.343 29.4225C177.973 28.6447 176.917 27.5625 176.173 26.1759C175.445 24.7893 175.082 23.2083 175.082 21.4328C175.082 19.6573 175.445 18.0763 176.173 16.6897C176.917 15.3032 177.973 14.2294 179.343 13.4685C180.713 12.6907 182.319 12.3018 184.162 12.3018C186.513 12.3018 188.423 12.8682 189.895 14.0012C191.383 15.1341 192.262 16.6728 192.532 18.6174H186.597Z" fill="white"/>
<path d="M206.177 27.7231H200.191L199.303 30.4371H193.394L199.963 12.4793H206.456L213 30.4371H207.065L206.177 27.7231ZM204.807 23.4873L203.184 18.4906L201.561 23.4873H204.807Z" fill="white"/>
</svg>
