<svg width="214" height="76" viewBox="0 0 214 76" fill="none" xmlns="http://www.w3.org/2000/svg">
<mask id="path-1-inside-1_253_164" fill="white">
<path d="M75.1699 37.585C75.1699 58.3426 58.3426 75.1699 37.585 75.1699C16.8274 75.1699 0 58.3426 0 37.585C0 16.8274 16.8274 0 37.585 0C58.3426 0 75.1699 16.8274 75.1699 37.585ZM3.54819 37.585C3.54819 56.383 18.787 71.6217 37.585 71.6217C56.383 71.6217 71.6217 56.383 71.6217 37.585C71.6217 18.787 56.383 3.54819 37.585 3.54819C18.787 3.54819 3.54819 18.787 3.54819 37.585Z"/>
</mask>
<path d="M75.1699 37.585C75.1699 58.3426 58.3426 75.1699 37.585 75.1699C16.8274 75.1699 0 58.3426 0 37.585C0 16.8274 16.8274 0 37.585 0C58.3426 0 75.1699 16.8274 75.1699 37.585ZM3.54819 37.585C3.54819 56.383 18.787 71.6217 37.585 71.6217C56.383 71.6217 71.6217 56.383 71.6217 37.585C71.6217 18.787 56.383 3.54819 37.585 3.54819C18.787 3.54819 3.54819 18.787 3.54819 37.585Z" fill="#00AC70" stroke="black" stroke-width="2" mask="url(#path-1-inside-1_253_164)"/>
<mask id="path-2-inside-2_253_164" fill="white">
<path d="M68.7139 37.5847C68.7139 54.7766 54.7771 68.7134 37.5852 68.7134C20.3933 68.7134 6.45654 54.7766 6.45654 37.5847C6.45654 20.3928 20.3933 6.45605 37.5852 6.45605C54.7771 6.45605 68.7139 20.3928 68.7139 37.5847ZM10.2654 37.5847C10.2654 52.673 22.4969 64.9045 37.5852 64.9045C52.6735 64.9045 64.905 52.673 64.905 37.5847C64.905 22.4964 52.6735 10.2649 37.5852 10.2649C22.4969 10.2649 10.2654 22.4964 10.2654 37.5847Z"/>
</mask>
<path d="M68.7139 37.5847C68.7139 54.7766 54.7771 68.7134 37.5852 68.7134C20.3933 68.7134 6.45654 54.7766 6.45654 37.5847C6.45654 20.3928 20.3933 6.45605 37.5852 6.45605C54.7771 6.45605 68.7139 20.3928 68.7139 37.5847ZM10.2654 37.5847C10.2654 52.673 22.4969 64.9045 37.5852 64.9045C52.6735 64.9045 64.905 52.673 64.905 37.5847C64.905 22.4964 52.6735 10.2649 37.5852 10.2649C22.4969 10.2649 10.2654 22.4964 10.2654 37.5847Z" fill="#263F8C" stroke="black" stroke-width="2" mask="url(#path-2-inside-2_253_164)"/>
<path d="M27.5705 50.2539C26.5544 51.1515 25.7679 51.0642 24.7214 49.9451C23.992 48.9005 24.0425 48.3397 25.1108 47.044L26.9863 45.0319C27.6717 44.2451 28.3126 43.8207 29.1284 43.8715C29.9349 43.9596 30.1602 44.1295 30.4916 44.4517C30.8157 44.9048 31.0746 45.2104 31.0758 45.8055C31.0087 46.3019 30.8598 46.6457 29.9074 47.7396C29.324 48.4466 28.348 49.5991 27.5705 50.2539Z" fill="#00AC70"/>
<path d="M21.0214 42.4415L22.5793 40.8942C23.5357 40.1311 23.9974 39.8845 24.7214 39.9272C25.6027 40.1294 25.8376 40.4425 26.0845 40.7008C26.4086 41.1539 26.4728 41.4595 26.474 42.0547C26.4237 42.6122 26.2814 42.9804 25.3056 43.9887C24.7222 44.6957 24.3304 45.0746 23.5529 45.7294C22.5137 46.6475 21.7146 46.5352 20.6319 45.3426C19.9025 44.2979 19.953 43.7372 21.0214 42.4415Z" fill="#00AC70"/>
<path d="M32.0454 54.0385C31.0306 54.935 30.2448 54.8491 29.2003 53.7341C28.4709 52.6894 28.5214 52.1287 29.5898 50.833L31.4612 48.8166C32.1542 48.2179 32.3833 48.1 33.0191 48.0429C33.6851 47.9854 34.3822 48.2363 34.7717 48.6232C35.1612 49.01 35.3911 49.2887 35.3559 49.7836C35.3207 50.2785 35.293 50.4998 34.3822 51.5243C33.7988 52.2313 32.8229 53.3838 32.0454 54.0385Z" fill="#00AC70"/>
<path d="M36.8076 57.4404C36.2906 57.6781 35.9358 57.6533 35.6392 57.6338C35.2385 57.5409 34.8372 57.4008 34.4708 57.0535C34.1687 56.6994 33.9029 56.2783 33.8866 56.0865C33.796 55.5337 33.9329 55.411 34.2761 54.7327C34.6261 54.1732 34.8577 53.9838 35.2497 53.5722C35.9428 52.9736 36.1718 52.8557 36.8076 52.7986C37.4736 52.7411 37.5014 52.8039 37.976 52.992C38.4507 53.1801 38.755 53.7656 38.755 53.7656C38.755 53.7656 39.3446 54.4876 38.3655 55.8931C37.6671 56.7494 37.2342 57.2411 36.8076 57.4404Z" fill="#00AC70"/>
<path d="M56.2813 39.3204C57.1121 38.5093 57.5231 37.9803 58.2287 36.9995C58.9373 35.7922 59.0076 35.1986 59.0076 33.8447C59.0076 32.4909 59.2024 31.3304 58.4234 28.8162C57.6445 26.3019 54.3308 24.1246 51.6076 21.6601L51.5357 21.5981C49.0724 19.4729 47.6691 18.2624 44.2076 17.9854C40.8568 18.065 39.6807 18.2983 37.7813 19.726C37.0385 20.2231 36.3158 20.7126 35.4533 21.4667C34.3684 22.4984 33.3048 23.3953 30.9655 25.7216C30.4627 26.1611 30.0792 27.0423 30.576 27.8491C31.202 28.7688 31.6286 29.1105 32.5234 29.3964C33.5975 29.4497 33.3188 28.8308 37.976 25.1414C38.9671 24.5616 40.1622 24.5724 41.4813 25.3348C45.3831 28.497 55.8237 38.866 56.2772 39.3163L56.2813 39.3204Z" fill="#00AC70"/>
<path d="M37.0023 18.1788C28.9111 17.2583 25.4354 19.7912 19.4761 27.0755C18.8777 28.0599 16.716 31.2146 16.6587 32.2563C16.5904 33.497 16.4827 34.4085 17.0344 35.8049C17.7751 37.8377 18.8228 39.0627 20.255 40.715C22.1713 38.5425 23.955 38.2931 24.5392 38.2787C25.1234 38.2644 26.0971 38.2931 26.9863 38.8733C27.8755 39.4535 28.7464 40.3242 28.8234 42.0547C30.1205 41.8967 31.5391 42.6575 32.1339 43.3217C32.7155 43.8545 32.8065 44.5039 33.1076 45.6425C33.9598 46.3195 37.0024 45.8055 37.5757 49.7836C38.3295 50.0977 39.5339 49.8345 40.5076 50.833C41.4813 51.8316 40.9501 53.3658 41.2866 53.3788C41.8729 53.5842 42.455 53.5722 43.0392 52.992C43.7351 51.7294 43.3313 51.3288 43.0392 50.833L33.6918 41.9678C33.3666 41.6259 33.3208 41.1492 33.6918 40.7008C34.0813 40.4206 34.4054 40.3857 34.7717 40.7008L47.3234 52.4118C48.1119 53.1696 49.4535 53.0084 50.0497 52.4118C50.806 51.3215 50.2445 50.5081 49.855 50.0909L37.1971 38.2931C36.8718 37.9512 36.6313 37.581 37.0024 37.1326C37.5313 36.5922 37.8045 36.8175 38.1708 37.1326L51.2182 48.9305C52.5681 50.1085 53.2555 49.9176 53.7497 49.3173C54.4876 48.3674 54.6296 47.5674 53.7497 46.6096L40.8971 34.6184C40.4476 34.122 40.4817 33.8774 40.8971 33.4579C41.3217 33.0293 41.7077 33.5242 42.0655 33.8447L54.5287 45.3426C55.6129 46.3084 56.8987 46.1339 57.4497 45.3426C58.0439 44.6172 57.6056 43.6755 56.8655 42.9348L40.5076 26.8821C39.8262 26.3782 38.9373 26.2181 38.1708 27.0755L35.2497 29.7832C33.8765 31.2321 31.5499 31.6397 29.9793 29.7832C28.4651 28.1283 28.2226 26.3566 29.4076 24.7546C30.8447 23.2981 31.6544 22.538 33.1076 21.2733C34.5154 19.8898 35.3737 19.2204 37.0023 18.1788Z" fill="#00AC70"/>
<path d="M37.0023 18.1788C28.9111 17.2583 25.4354 19.7912 19.4761 27.0755C18.8777 28.0599 16.716 31.2146 16.6587 32.2563C16.5904 33.497 16.4827 34.4085 17.0344 35.8049C17.7751 37.8377 18.8228 39.0627 20.255 40.715C22.1713 38.5425 23.955 38.2931 24.5392 38.2787C25.1234 38.2644 26.0971 38.2931 26.9863 38.8733C27.8755 39.4535 28.7464 40.3242 28.8234 42.0547C30.1205 41.8967 31.5391 42.6575 32.1339 43.3217C32.7155 43.8545 32.8065 44.5039 33.1076 45.6425C33.9598 46.3195 37.0024 45.8055 37.5757 49.7836C38.3295 50.0977 39.5339 49.8345 40.5076 50.833C41.4813 51.8316 40.9501 53.3658 41.2866 53.3788C41.8729 53.5842 42.455 53.5722 43.0392 52.992C43.7351 51.7294 43.3313 51.3288 43.0392 50.833L33.6918 41.9678C33.3666 41.6259 33.3208 41.1492 33.6918 40.7008C34.0813 40.4206 34.4054 40.3857 34.7717 40.7008L47.3234 52.4118C48.1119 53.1696 49.4535 53.0084 50.0497 52.4118C50.806 51.3215 50.2445 50.5081 49.855 50.0909L37.1971 38.2931C36.8718 37.9512 36.6313 37.581 37.0024 37.1326C37.5313 36.5922 37.8045 36.8175 38.1708 37.1326L51.2182 48.9305C52.5681 50.1085 53.2555 49.9176 53.7497 49.3173C54.4876 48.3674 54.6296 47.5674 53.7497 46.6096L40.8971 34.6184C40.4476 34.122 40.4817 33.8774 40.8971 33.4579C41.3217 33.0293 41.7077 33.5242 42.0655 33.8447L54.5287 45.3426C55.6129 46.3084 56.8987 46.1339 57.4497 45.3426C58.0439 44.6172 57.6056 43.6755 56.8655 42.9348L40.5076 26.8821C39.8262 26.3782 38.9373 26.2181 38.1708 27.0755L35.2497 29.7832C33.8765 31.2321 31.5499 31.6397 29.9793 29.7832C28.4651 28.1283 28.2226 26.3566 29.4076 24.7546C30.8447 23.2981 31.6544 22.538 33.1076 21.2733C34.5154 19.8898 35.3737 19.2204 37.0023 18.1788Z" fill="#263F8C"/>
<path d="M56.2813 39.3204C57.1121 38.5093 57.5231 37.9803 58.2287 36.9995C58.9373 35.7922 59.0076 35.1986 59.0076 33.8447C59.0076 32.4909 59.2024 31.3304 58.4234 28.8162C57.6445 26.3019 54.3308 24.1246 51.6076 21.6601M56.2813 39.3204L56.2772 39.3163M56.2813 39.3204C56.28 39.3192 56.2787 39.3178 56.2772 39.3163M51.6076 21.6601L51.5357 21.5981M51.6076 21.6601C51.5835 21.6393 51.5596 21.6186 51.5357 21.5981M51.5357 21.5981C49.0724 19.4729 47.6691 18.2624 44.2076 17.9854C40.8568 18.065 39.6807 18.2983 37.7813 19.726C37.0385 20.2231 36.3158 20.7126 35.4533 21.4667C34.3684 22.4984 33.3048 23.3953 30.9655 25.7216C30.4627 26.1611 30.0792 27.0423 30.576 27.8491C31.202 28.7688 31.6286 29.1105 32.5234 29.3964C33.5975 29.4497 33.3188 28.8308 37.976 25.1414C38.9671 24.5616 40.1622 24.5724 41.4813 25.3348C45.3831 28.497 55.8237 38.866 56.2772 39.3163M37.0023 18.1788C28.9111 17.2583 25.4354 19.7912 19.4761 27.0755C18.8777 28.0599 16.716 31.2146 16.6587 32.2563C16.5904 33.497 16.4827 34.4085 17.0344 35.8049C17.7751 37.8377 18.8228 39.0627 20.255 40.715C22.1713 38.5425 23.955 38.2931 24.5392 38.2787C25.1234 38.2644 26.0971 38.2931 26.9863 38.8733C27.8755 39.4535 28.7464 40.3242 28.8234 42.0547C30.1205 41.8967 31.5391 42.6575 32.1339 43.3217C32.7155 43.8546 32.8065 44.5039 33.1076 45.6425C33.9598 46.3195 37.0024 45.8055 37.5757 49.7836C38.3295 50.0977 39.5339 49.8345 40.5076 50.833C41.4813 51.8316 40.9501 53.3658 41.2866 53.3788C41.8729 53.5842 42.455 53.5722 43.0392 52.992C43.7351 51.7294 43.3313 51.3288 43.0392 50.833L33.6918 41.9678C33.3666 41.6259 33.3208 41.1492 33.6918 40.7008C34.0813 40.4206 34.4054 40.3857 34.7717 40.7008L47.3234 52.4118C48.1119 53.1696 49.4535 53.0084 50.0497 52.4118C50.806 51.3215 50.2445 50.5081 49.855 50.0909L37.1971 38.2931C36.8718 37.9512 36.6313 37.581 37.0024 37.1326C37.5313 36.5922 37.8045 36.8175 38.1708 37.1326L51.2182 48.9305C52.5681 50.1085 53.2555 49.9176 53.7497 49.3173C54.4876 48.3674 54.6296 47.5674 53.7497 46.6096L40.8971 34.6184C40.4476 34.122 40.4817 33.8774 40.8971 33.4579C41.3217 33.0293 41.7077 33.5242 42.0655 33.8447L54.5287 45.3426C55.6129 46.3084 56.8987 46.1339 57.4497 45.3426C58.0439 44.6172 57.6056 43.6755 56.8655 42.9348L40.5076 26.8821C39.8262 26.3782 38.9373 26.2181 38.1708 27.0755L35.2497 29.7832C33.8765 31.2321 31.5499 31.6397 29.9793 29.7832C28.4651 28.1283 28.2226 26.3566 29.4076 24.7546C30.8447 23.2981 31.6544 22.538 33.1076 21.2733C34.5154 19.8898 35.3737 19.2204 37.0023 18.1788ZM21.0214 42.4415L22.5793 40.8942C23.5357 40.1311 23.9974 39.8845 24.7214 39.9272C25.6027 40.1294 25.8376 40.4425 26.0845 40.7008C26.4086 41.1539 26.4728 41.4595 26.474 42.0547C26.4237 42.6122 26.2814 42.9804 25.3056 43.9887C24.7222 44.6957 24.3304 45.0746 23.5529 45.7294C22.5137 46.6475 21.7146 46.5352 20.6319 45.3426C19.9025 44.2979 19.953 43.7372 21.0214 42.4415ZM27.5705 50.2539C28.348 49.5991 29.324 48.4466 29.9074 47.7396C30.8598 46.6457 31.0087 46.3019 31.0758 45.8055C31.0746 45.2104 30.8157 44.9048 30.4916 44.4517C30.1602 44.1295 29.9349 43.9596 29.1284 43.8715C28.3126 43.8207 27.6717 44.2451 26.9863 45.0319L25.1108 47.044C24.0425 48.3397 23.992 48.9005 24.7214 49.9451C25.7679 51.0642 26.5544 51.1515 27.5705 50.2539ZM32.0454 54.0385C32.8229 53.3838 33.7988 52.2313 34.3822 51.5243C35.293 50.4998 35.3207 50.2785 35.3559 49.7836C35.3911 49.2887 35.1612 49.01 34.7717 48.6232C34.3822 48.2363 33.6851 47.9854 33.0191 48.0429C32.3833 48.1 32.1542 48.2179 31.4612 48.8166L29.5898 50.833C28.5214 52.1287 28.4709 52.6894 29.2003 53.7341C30.2448 54.8491 31.0306 54.935 32.0454 54.0385ZM36.8076 57.4404C37.2342 57.2411 37.6671 56.7494 38.3655 55.8931C39.3446 54.4876 38.755 53.7656 38.755 53.7656C38.755 53.7656 38.4507 53.1801 37.976 52.992C37.5014 52.8039 37.4736 52.7411 36.8076 52.7986C36.1718 52.8557 35.9428 52.9736 35.2497 53.5722C34.8577 53.9838 34.6261 54.1732 34.276 54.7327C33.9329 55.411 33.796 55.5337 33.8866 56.0865C33.9029 56.2783 34.1687 56.6994 34.4708 57.0535C34.8372 57.4008 35.2385 57.5409 35.6392 57.6338C35.9358 57.6533 36.2906 57.6781 36.8076 57.4404Z" stroke="black"/>
<path d="M116.883 42.6879V42.1879H116.383H108.01H107.658L107.539 42.5196L103.307 54.3519L98.9625 42.5156L98.8422 42.1879H98.4931H90.0889H89.5889V42.6879V64.5638V65.0638H90.0889H96.9482H97.4482V64.5638V56.9707L99.8384 64.7113L99.9472 65.0638H100.316H106.187H106.556L106.665 64.7113L109.055 56.9707V64.5638V65.0638H109.555H116.383H116.883V64.5638V42.6879ZM125.133 65.0638H125.495L125.608 64.7192L126.577 61.7577H133.143L134.112 64.7192L134.225 65.0638H134.587H141.818H142.532L142.287 64.3926L134.316 42.5167L134.196 42.1879H133.846H125.936H125.586L125.466 42.5162L117.464 64.392L117.218 65.0638H117.933H125.133ZM161.055 42.6879V42.1879H160.555H142.14H141.64V42.6879V48.126V48.626H142.14H147.387V64.5638V65.0638H147.887H154.746H155.246V64.5638V48.626H160.555H161.055V48.126V42.6879ZM168.07 65.0638H168.433L168.545 64.7192L169.514 61.7577H176.081L177.05 64.7192L177.162 65.0638H177.525H184.755H185.469L185.225 64.3926L177.253 42.5167L177.133 42.1879H176.783H168.873H168.524L168.404 42.5162L160.401 64.392L160.155 65.0638H160.871H168.07ZM165.105 41.3363L165.005 41.9211H165.598H168.935H169.349L169.426 41.5151C169.509 41.0837 169.642 40.8246 169.783 40.6777C169.91 40.5452 170.075 40.4689 170.326 40.4689C170.49 40.4689 170.69 40.51 170.932 40.6139L170.946 40.62L170.961 40.6252C171.227 40.7202 171.494 40.8346 171.763 40.9687C172.275 41.2454 172.763 41.4629 173.226 41.6174C173.714 41.7799 174.231 41.8593 174.775 41.8593C176.209 41.8593 177.415 41.3952 178.344 40.444C179.293 39.4934 179.905 37.9947 180.242 36.0369L180.343 35.4521H179.75H176.382H175.951L175.887 35.8785C175.823 36.3074 175.7 36.5593 175.569 36.6996C175.451 36.8252 175.288 36.9044 175.022 36.9044C174.839 36.9044 174.653 36.8752 174.463 36.8143C174.252 36.7173 173.961 36.5721 173.589 36.3763C173.076 36.0983 172.586 35.88 172.121 35.725C171.634 35.5624 171.116 35.483 170.573 35.483C169.133 35.483 167.918 35.9607 166.971 36.9315L166.971 36.9316C166.044 37.8818 165.442 39.3794 165.105 41.3363ZM191.042 63.7629L191.044 63.7642C192.852 64.7757 194.831 65.2801 196.973 65.2801C199.095 65.2801 201.055 64.7754 202.842 63.7633C204.65 62.7518 206.073 61.3497 207.107 59.5633C208.165 57.7711 208.689 55.7567 208.689 53.5332C208.689 51.3096 208.165 49.2952 207.107 47.503C206.074 45.7174 204.66 44.3248 202.872 43.3333C201.084 42.3212 199.114 41.8172 196.973 41.8172C194.832 41.8172 192.852 42.3213 191.045 43.3325C189.256 44.3239 187.833 45.7162 186.779 47.501C185.721 49.2938 185.195 51.3088 185.195 53.5332C185.195 55.7575 185.721 57.7725 186.779 59.5653C187.832 61.3495 189.255 62.7512 191.042 63.7629ZM199.741 50.3009L199.745 50.3053C200.387 51.0542 200.737 52.1101 200.737 53.5332C200.737 54.9314 200.389 55.9905 199.744 56.763C199.116 57.4945 198.217 57.8842 196.973 57.8842C195.707 57.8842 194.799 57.4928 194.172 56.763C193.526 55.9905 193.178 54.9314 193.178 53.5332C193.178 52.1101 193.528 51.0542 194.17 50.3053L194.174 50.3008C194.802 49.5509 195.709 49.1513 196.973 49.1513C198.214 49.1513 199.112 49.5491 199.741 50.3009ZM128.571 55.5977L129.86 51.629L131.149 55.5977H128.571ZM171.508 55.5977L172.797 51.629L174.087 55.5977H171.508Z" fill="#263F8C" stroke="black"/>
<path d="M121.494 42.6879V42.1879H120.994H112.621H112.269L112.15 42.5196L107.918 54.3519L103.574 42.5156L103.454 42.1879H103.104H94.7002H94.2002V42.6879V64.5638V65.0638H94.7002H101.56H102.06V64.5638V56.9707L104.45 64.7113L104.559 65.0638H104.927H110.798H111.167L111.276 64.7113L113.666 56.9707V64.5638V65.0638H114.166H120.994H121.494V64.5638V42.6879ZM129.744 65.0638H130.106L130.219 64.7192L131.188 61.7577H137.755L138.724 64.7192L138.836 65.0638H139.199H146.429H147.143L146.899 64.3926L138.927 42.5167L138.807 42.1879H138.457H130.547H130.198L130.078 42.5162L122.075 64.392L121.829 65.0638H122.545H129.744ZM165.667 42.6879V42.1879H165.167H146.751H146.251V42.6879V48.126V48.626H146.751H151.998V64.5638V65.0638H152.498H159.358H159.858V64.5638V48.626H165.167H165.667V48.126V42.6879ZM172.681 65.0638H173.044L173.157 64.7192L174.125 61.7577H180.692L181.661 64.7192L181.774 65.0638H182.136H189.366H190.081L189.836 64.3926L181.864 42.5167L181.745 42.1879H181.395H173.485H173.135L173.015 42.5162L165.013 64.392L164.767 65.0638H165.482H172.681ZM169.717 41.3363L169.616 41.9211H170.21H173.547H173.96L174.038 41.5151C174.12 41.0837 174.254 40.8246 174.394 40.6777C174.521 40.5452 174.687 40.4689 174.937 40.4689C175.101 40.4689 175.301 40.51 175.543 40.6139L175.558 40.62L175.572 40.6252C175.838 40.7202 176.106 40.8346 176.375 40.9687C176.886 41.2454 177.374 41.4629 177.838 41.6174C178.325 41.7799 178.843 41.8593 179.386 41.8593C180.821 41.8593 182.026 41.3952 182.955 40.444C183.905 39.4934 184.517 37.9947 184.854 36.0369L184.954 35.4521H184.361H180.993H180.562L180.498 35.8785C180.435 36.3074 180.311 36.5593 180.18 36.6996C180.062 36.8252 179.899 36.9044 179.633 36.9044C179.451 36.9044 179.265 36.8752 179.074 36.8143C178.863 36.7173 178.573 36.5721 178.201 36.3763C177.687 36.0983 177.198 35.88 176.733 35.725C176.245 35.5624 175.728 35.483 175.184 35.483C173.745 35.483 172.53 35.9607 171.582 36.9315L171.582 36.9316C170.655 37.8818 170.053 39.3794 169.717 41.3363ZM195.653 63.7629L195.655 63.7642C197.463 64.7757 199.443 65.2801 201.585 65.2801C203.707 65.2801 205.666 64.7754 207.454 63.7633C209.261 62.7518 210.685 61.3497 211.718 59.5633C212.776 57.7711 213.301 55.7567 213.301 53.5332C213.301 51.3096 212.776 49.2952 211.718 47.503C210.685 45.7174 209.272 44.3248 207.484 43.3333C205.696 42.3212 203.726 41.8172 201.585 41.8172C199.443 41.8172 197.464 42.3213 195.656 43.3325C193.868 44.3239 192.444 45.7162 191.39 47.501C190.332 49.2938 189.807 51.3088 189.807 53.5332C189.807 55.7575 190.332 57.7725 191.39 59.5653C192.444 61.3495 193.866 62.7512 195.653 63.7629ZM204.353 50.3009L204.357 50.3053C204.999 51.0542 205.349 52.1101 205.349 53.5332C205.349 54.9314 205.001 55.9905 204.355 56.763C203.727 57.4945 202.828 57.8842 201.585 57.8842C200.318 57.8842 199.41 57.4928 198.783 56.763C198.138 55.9905 197.79 54.9314 197.79 53.5332C197.79 52.1101 198.14 51.0542 198.782 50.3053L198.785 50.3008C199.413 49.5509 200.321 49.1513 201.585 49.1513C202.825 49.1513 203.723 49.5491 204.353 50.3009ZM133.182 55.5977L134.471 51.629L135.761 55.5977H133.182ZM176.119 55.5977L177.409 51.629L178.698 55.5977H176.119Z" fill="#50D2A5" stroke="black"/>
<path d="M95.4428 16.9688V19.1754H101.023V23.4112H95.4428V25.9476H101.784V30.4371H89.812V12.4793H101.784V16.9688H95.4428Z" fill="#2F2F2F"/>
<path d="M125.491 12.4793V30.4371H119.885V21.4836L117.121 30.4371H112.301L109.537 21.4836V30.4371H103.906V12.4793H110.805L114.762 23.259L118.617 12.4793H125.491Z" fill="#2F2F2F"/>
<path d="M142.717 18.6428C142.717 19.7757 142.455 20.8072 141.931 21.7372C141.407 22.6503 140.629 23.3774 139.598 23.9185C138.583 24.4596 137.349 24.7302 135.894 24.7302H133.662V30.4371H128.032V12.4793H135.894C138.093 12.4793 139.775 13.0373 140.942 14.1533C142.126 15.2694 142.717 16.7658 142.717 18.6428ZM135.26 20.2914C136.427 20.2914 137.01 19.7419 137.01 18.6428C137.01 17.5437 136.427 16.9941 135.26 16.9941H133.662V20.2914H135.26Z" fill="#2F2F2F"/>
<path d="M153.533 30.4371L150.16 23.9946H150.134V30.4371H144.503V12.4793H152.873C154.328 12.4793 155.571 12.7414 156.602 13.2656C157.633 13.7729 158.403 14.4746 158.91 15.3708C159.434 16.2501 159.696 17.2478 159.696 18.3638C159.696 19.5643 159.358 20.6296 158.682 21.5597C158.022 22.4897 157.067 23.1576 155.816 23.5634L159.722 30.4371H153.533ZM150.134 20.2407H152.366C152.907 20.2407 153.313 20.1224 153.584 19.8856C153.854 19.632 153.99 19.2431 153.99 18.7189C153.99 18.2454 153.846 17.8734 153.558 17.6029C153.288 17.3323 152.89 17.197 152.366 17.197H150.134V20.2407Z" fill="#2F2F2F"/>
<path d="M167.126 16.9688V19.1754H172.706V23.4112H167.126V25.9476H173.467V30.4371H161.495V12.4793H173.467V16.9688H167.126Z" fill="#2F2F2F"/>
<path d="M186.597 18.6174C186.377 18.2623 186.065 17.9918 185.659 17.8058C185.253 17.6029 184.763 17.5014 184.188 17.5014C183.105 17.5014 182.268 17.8565 181.677 18.5667C181.085 19.26 180.789 20.2154 180.789 21.4328C180.789 22.8363 181.119 23.8847 181.778 24.578C182.438 25.2713 183.452 25.6179 184.822 25.6179C186.124 25.6179 187.172 25.0937 187.967 24.0453H183.477V20.0632H192.634V25.694C191.856 27.0298 190.782 28.1797 189.413 29.1435C188.043 30.0904 186.31 30.5639 184.213 30.5639C182.353 30.5639 180.73 30.1834 179.343 29.4225C177.973 28.6447 176.917 27.5625 176.173 26.1759C175.445 24.7893 175.082 23.2083 175.082 21.4328C175.082 19.6573 175.445 18.0763 176.173 16.6897C176.917 15.3032 177.973 14.2294 179.343 13.4685C180.713 12.6907 182.319 12.3018 184.162 12.3018C186.513 12.3018 188.423 12.8682 189.895 14.0012C191.383 15.1341 192.262 16.6728 192.532 18.6174H186.597Z" fill="#2F2F2F"/>
<path d="M206.177 27.7231H200.191L199.303 30.4371H193.394L199.963 12.4793H206.456L213 30.4371H207.065L206.177 27.7231ZM204.807 23.4873L203.184 18.4906L201.561 23.4873H204.807Z" fill="#2F2F2F"/>
</svg>
